<svg width="324" height="51" viewBox="0 0 324 51" fill="none" xmlns="http://www.w3.org/2000/svg">
<g clip-path="url(#clip0_33_347)">
<path d="M45.2086 1.96202C46.3314 0.793299 47.8561 0.136719 49.4438 0.136719C56.5871 0.136719 63.3189 0.136722 69.9483 0.136736C83.2818 0.136764 89.9586 16.9184 80.5305 26.7331L59.9935 48.112C59.0507 49.0935 57.4386 48.3983 57.4386 47.0103V28.1806L59.8119 25.7099C61.6976 23.747 60.3621 20.3906 57.6954 20.3906H27.5059L45.2086 1.96202Z" fill="#666666"/>
<path d="M39.7354 46.6094C38.6128 47.7781 37.088 48.4347 35.5003 48.4347C28.357 48.4347 21.6252 48.4347 14.9959 48.4347C1.66226 48.4346 -5.01455 31.653 4.41369 21.8382L24.9507 0.459448C25.8934 -0.522031 27.5055 0.173093 27.5055 1.56111L27.5057 20.3906L25.1322 22.8615C23.2466 24.8245 24.582 28.1808 27.2488 28.1808L57.4384 28.1807L39.7354 46.6094Z" fill="#666666"/>
<path d="M204.049 16.3198V40.5992H211.174V16.3198H204.049Z" fill="#666666"/>
<path d="M204.544 12.2807C205.387 13.1231 206.416 13.5443 207.634 13.5443C208.851 13.5443 209.874 13.1231 210.7 12.2807C211.543 11.4383 211.964 10.4153 211.964 9.2119C211.964 7.97836 211.543 6.94791 210.7 6.12056C209.874 5.27814 208.851 4.85693 207.634 4.85693C206.416 4.85693 205.387 5.27814 204.544 6.12056C203.702 6.94791 203.281 7.97836 203.281 9.2119C203.281 10.4153 203.702 11.4383 204.544 12.2807Z" fill="#666666"/>
<path fill-rule="evenodd" clip-rule="evenodd" d="M215.194 50.0768V16.3202H221.96V18.7346H222.048C222.474 18.3145 222.933 17.9309 223.425 17.5838C225.019 16.4706 226.852 15.9141 228.927 15.9141C230.746 15.9141 232.483 16.3879 234.137 17.3356C235.805 18.2833 237.158 19.6899 238.196 21.5551C239.232 23.4205 239.736 25.7447 239.707 28.5276C239.721 30.6336 239.428 32.4689 238.827 34.0334C238.225 35.5828 237.413 36.869 236.391 37.8919C235.37 38.9148 234.227 39.682 232.963 40.1935C231.701 40.7049 230.424 40.9607 229.13 40.9607C227.085 40.9607 225.252 40.3891 223.628 39.2458C223.219 38.9542 222.832 38.6383 222.467 38.2981H222.32V50.0768H215.194ZM227.461 35.0036C228.514 34.9885 229.438 34.7104 230.235 34.1688C231.032 33.6272 231.656 32.86 232.107 31.8672C232.558 30.8743 232.776 29.716 232.761 28.3922C232.776 27.0384 232.551 25.8801 232.085 24.9173C231.633 23.9395 230.995 23.1948 230.168 22.6833C229.341 22.1569 228.393 21.9011 227.327 21.9162C226.32 21.9011 225.417 22.1494 224.621 22.6609C223.823 23.1723 223.192 23.9169 222.726 24.8947C222.26 25.8575 222.027 27.0233 222.027 28.3922C222.027 29.716 222.26 30.8743 222.726 31.8672C223.207 32.86 223.854 33.6272 224.666 34.1688C225.477 34.7104 226.409 34.9885 227.461 35.0036Z" fill="#666666"/>
<path d="M246.568 40.2159C247.891 40.7123 249.274 40.9605 250.717 40.9605C252.371 40.9605 253.882 40.6372 255.249 39.9903C256.633 39.3435 257.737 38.4409 258.565 37.2826C259.407 36.1092 259.827 34.7628 259.827 33.2435C259.827 32.04 259.572 31.0246 259.061 30.1973C258.565 29.3699 257.932 28.693 257.167 28.1664C256.414 27.6399 255.64 27.2262 254.844 26.9254C254.047 26.6095 253.348 26.3688 252.746 26.2033C251.964 25.9777 251.213 25.7445 250.491 25.5039C249.77 25.2632 249.176 24.9774 248.71 24.6463C248.244 24.3155 248.011 23.8792 248.011 23.3376C248.011 22.7961 248.244 22.3448 248.71 21.9838C249.176 21.6228 249.762 21.4422 250.469 21.4422C251.31 21.4422 252.002 21.6678 252.543 22.1192C253.1 22.5704 253.52 23.0368 253.806 23.5182L259.285 21.1488C258.595 19.5844 257.421 18.3283 255.769 17.3805C254.129 16.4329 252.28 15.959 250.221 15.959C248.568 15.959 247.094 16.2674 245.801 16.8841C244.523 17.5009 243.509 18.3584 242.757 19.4565C242.02 20.5396 241.652 21.7957 241.652 23.2248C241.652 24.5787 241.968 25.7295 242.599 26.6772C243.231 27.6249 244.05 28.4071 245.057 29.024C246.079 29.6256 247.161 30.0995 248.305 30.4455C248.801 30.5809 249.342 30.7313 249.928 30.8968C250.529 31.0623 251.1 31.2578 251.642 31.4835C252.183 31.7091 252.626 31.9799 252.972 32.2957C253.317 32.6117 253.491 32.9878 253.491 33.4241C253.491 33.77 253.371 34.0934 253.129 34.3943C252.905 34.6952 252.588 34.9434 252.183 35.1389C251.776 35.3194 251.303 35.4097 250.762 35.4097C249.74 35.4097 248.853 35.0938 248.101 34.462C247.35 33.8301 246.786 33.1608 246.41 32.4537L240.817 34.9133C241.328 36.1318 242.088 37.1998 243.095 38.1174C244.102 39.02 245.26 39.7195 246.568 40.2159Z" fill="#666666"/>
<path d="M288.793 40.5995V16.3201H295.58V19.4114H295.704C296.235 18.6728 296.832 18.0485 297.497 17.5385C298.85 16.4855 300.451 15.959 302.3 15.959C303.833 15.959 305.134 16.335 306.202 17.0873C307.024 17.6479 307.695 18.4001 308.215 19.3437H308.342C309.11 18.3638 310.043 17.5964 311.139 17.0421C312.568 16.3201 314.123 15.959 315.808 15.959C317.415 15.959 318.739 16.2448 319.776 16.8165C320.813 17.373 321.625 18.1102 322.211 19.0278C322.797 19.9304 323.211 20.9232 323.451 22.0064C323.693 23.0743 323.813 24.1123 323.813 25.1203V40.5995H316.641V26.0003C316.641 24.6765 316.363 23.6611 315.808 22.954C315.266 22.232 314.469 21.871 313.417 21.871C312.725 21.871 312.109 22.029 311.568 22.3448C311.042 22.6457 310.621 23.1044 310.306 23.7212C310.005 24.338 309.854 25.0977 309.854 26.0003V40.5995H302.729V26.0003C302.729 24.6765 302.451 23.6611 301.894 22.954C301.338 22.232 300.533 21.871 299.481 21.871C298.46 21.871 297.61 22.2245 296.933 22.9315C296.257 23.6234 295.919 24.6614 295.919 26.0454V40.5995H288.793Z" fill="#666666"/>
<path d="M271.356 40.9602C269.687 40.9602 268.169 40.6068 266.802 39.8998C265.433 39.1777 264.343 38.1246 263.531 36.7407C262.735 35.3417 262.336 33.6193 262.336 31.5734V16.3198H269.462V30.6257C269.462 32.0247 269.823 33.0928 270.544 33.8298C271.281 34.552 272.176 34.913 273.228 34.913C274.01 34.913 274.694 34.7399 275.28 34.394C275.881 34.048 276.347 33.5592 276.678 32.9272C277.024 32.2804 277.196 31.5132 277.196 30.6257V16.3198H284.322V32.0924C284.322 32.9649 284.45 33.5967 284.705 33.9878C284.961 34.3789 285.479 34.7175 286.261 35.0032L283.736 40.9602C281.947 40.4939 280.639 39.8847 279.813 39.1326C279.396 38.7536 279.081 38.3173 278.866 37.8239H278.685C278.055 38.4572 277.356 39.0214 276.588 39.5162C275.069 40.4789 273.325 40.9602 271.356 40.9602Z" fill="#666666"/>
<path fill-rule="evenodd" clip-rule="evenodd" d="M188.619 40.9605C186.288 40.9605 184.161 40.4266 182.238 39.3585C180.328 38.2904 178.802 36.8162 177.659 34.9358C176.532 33.0554 175.969 30.8892 175.969 28.4372C175.969 25.9852 176.532 23.8191 177.659 21.9386C178.802 20.0583 180.328 18.5916 182.238 17.5385C184.161 16.4855 186.288 15.959 188.619 15.959C190.994 15.959 193.136 16.4855 195.046 17.5385C196.955 18.5916 198.466 20.0583 199.578 21.9386C200.706 23.8191 201.269 25.9852 201.269 28.4372C201.269 30.8892 200.706 33.0554 199.578 34.9358C198.466 36.8162 196.947 38.2904 195.023 39.3585C193.114 40.4266 190.98 40.9605 188.619 40.9605ZM188.619 34.8681C189.731 34.8681 190.731 34.5974 191.618 34.0558C192.505 33.5143 193.204 32.7621 193.715 31.7993C194.226 30.8367 194.482 29.7159 194.482 28.4372C194.482 27.2038 194.234 26.1056 193.738 25.1427C193.241 24.1801 192.557 23.4279 191.686 22.8864C190.813 22.3297 189.806 22.0514 188.664 22.0514C187.537 22.0514 186.521 22.3222 185.62 22.8638C184.733 23.3903 184.034 24.1349 183.523 25.0977C183.012 26.0604 182.756 27.1736 182.756 28.4372C182.756 29.7159 183.012 30.8367 183.523 31.7993C184.048 32.7621 184.756 33.5143 185.643 34.0558C186.53 34.5974 187.521 34.8681 188.619 34.8681Z" fill="#666666"/>
<path fill-rule="evenodd" clip-rule="evenodd" d="M154.878 49.6931C156.561 50.1895 158.41 50.4377 160.425 50.4377C162.304 50.4377 164.025 50.197 165.589 49.7156C167.152 49.2494 168.505 48.5423 169.647 47.5945C170.805 46.6469 171.699 45.4735 172.331 44.0744C172.962 42.6755 173.278 41.0509 173.278 39.2005V16.2975H166.806V18.6667H166.672C166.241 18.2542 165.775 17.8782 165.272 17.5385C163.71 16.4704 161.883 15.9365 159.794 15.9365C157.989 15.9365 156.253 16.3953 154.584 17.3129C152.916 18.2155 151.548 19.5694 150.48 21.3746C149.428 23.1647 148.901 25.4135 148.901 28.1214C148.901 30.1522 149.21 31.9197 149.826 33.4241C150.442 34.9283 151.262 36.1844 152.285 37.1924C153.322 38.1852 154.471 38.9298 155.734 39.4262C156.998 39.9076 158.267 40.1483 159.545 40.1483C161.605 40.1483 163.439 39.5841 165.048 38.4559C165.556 38.0942 166.032 37.6956 166.473 37.26H166.581V39.6067C166.581 40.765 166.206 41.6977 165.453 42.4047C164.702 43.1268 163.792 43.6533 162.725 43.9842C161.658 44.3152 160.627 44.4806 159.636 44.4806C158.478 44.4806 157.335 44.2926 156.208 43.9166C155.095 43.5555 154.118 43.1193 153.277 42.6078L150.932 48.2039C151.894 48.7153 153.209 49.2117 154.878 49.6931ZM164.168 33.5369C163.342 34.0784 162.387 34.3491 161.304 34.3491C160.237 34.3491 159.297 34.0784 158.485 33.5369C157.674 32.9802 157.035 32.2206 156.569 31.2578C156.103 30.28 155.869 29.1594 155.869 27.8957C155.869 26.6321 156.103 25.5339 156.569 24.6013C157.05 23.6686 157.711 22.954 158.553 22.4576C159.396 21.9461 160.349 21.6904 161.417 21.6904C162.484 21.6904 163.424 21.9386 164.236 22.435C165.048 22.9315 165.686 23.646 166.152 24.5787C166.618 25.4964 166.851 26.602 166.851 27.8957C166.851 29.1743 166.611 30.3026 166.13 31.2804C165.649 32.2432 164.995 32.9953 164.168 33.5369Z" fill="#666666"/>
<path fill-rule="evenodd" clip-rule="evenodd" d="M134.442 40.9605C132.112 40.9605 129.984 40.4266 128.06 39.3585C126.151 38.2904 124.625 36.8162 123.483 34.9358C122.355 33.0554 121.791 30.8892 121.791 28.4372C121.791 25.9852 122.355 23.8191 123.483 21.9386C124.625 20.0583 126.151 18.5916 128.06 17.5385C129.984 16.4855 132.112 15.959 134.442 15.959C136.816 15.959 138.959 16.4855 140.868 17.5385C142.777 18.5916 144.288 20.0583 145.401 21.9386C146.528 23.8191 147.092 25.9852 147.092 28.4372C147.092 30.8892 146.528 33.0554 145.401 34.9358C144.288 36.8162 142.77 38.2904 140.845 39.3585C138.936 40.4266 136.802 40.9605 134.442 40.9605ZM134.442 34.8681C135.554 34.8681 136.553 34.5974 137.44 34.0558C138.327 33.5143 139.026 32.7621 139.538 31.7993C140.049 30.8367 140.304 29.7159 140.304 28.4372C140.304 27.2038 140.056 26.1056 139.56 25.1427C139.064 24.1801 138.381 23.4279 137.508 22.8864C136.637 22.3297 135.628 22.0514 134.486 22.0514C133.359 22.0514 132.345 22.3222 131.442 22.8638C130.555 23.3903 129.856 24.1349 129.345 25.0977C128.834 26.0604 128.578 27.1736 128.578 28.4372C128.578 29.7159 128.834 30.8367 129.345 31.7993C129.872 32.7621 130.578 33.5143 131.465 34.0558C132.352 34.5974 133.343 34.8681 134.442 34.8681Z" fill="#666666"/>
<path d="M102.527 7.33936V40.5995H121.898V34.0107H109.924V7.33936H102.527Z" fill="#666666"/>
</g>
<defs>
<clipPath id="clip0_33_347">
<rect width="324" height="51" fill="white"/>
</clipPath>
</defs>
</svg>
