<svg width="284" height="51" viewBox="0 0 284 51" fill="none" xmlns="http://www.w3.org/2000/svg">
<g clip-path="url(#clip0_33_327)">
<path d="M15.7012 0L28.8622 11.2568C29.6435 11.9251 30.0939 12.9058 30.0939 13.9387V22.4224L16.9329 11.1656C16.1515 10.4973 15.7012 9.5166 15.7012 8.48367V0Z" fill="#666666"/>
<path d="M15.7012 51L28.8622 39.7432C29.6435 39.075 30.0939 38.0942 30.0939 37.0614V28.5776L16.9329 39.8345C16.1515 40.5027 15.7012 41.4834 15.7012 42.5163V51Z" fill="#666666"/>
<path d="M0 11.8706L12.982 22.9123C13.6114 23.4477 14.4085 23.7413 15.232 23.7413H25.7014L12.7513 12.7021C12.1215 12.1652 11.3233 11.8706 10.4984 11.8706H0Z" fill="#666666"/>
<path d="M0 39.1295L12.9021 28.0942C13.5327 27.5548 14.3327 27.2588 15.1595 27.2588H25.7326L12.7506 38.3004C12.1212 38.8358 11.3242 39.1295 10.5006 39.1295H0Z" fill="#666666"/>
<path d="M47.9757 0L34.8147 11.2568C34.0333 11.9251 33.583 12.9058 33.583 13.9387V22.4224L46.7439 11.1656C47.5254 10.4973 47.9757 9.5166 47.9757 8.48367V0Z" fill="#666666"/>
<path d="M47.9757 51L34.8147 39.7432C34.0333 39.075 33.583 38.0942 33.583 37.0614V28.5776L46.7439 39.8345C47.5254 40.5027 47.9757 41.4834 47.9757 42.5163V51Z" fill="#666666"/>
<path d="M63.677 11.8706L50.695 22.9123C50.0656 23.4477 49.2685 23.7413 48.445 23.7413H37.9756L50.9256 12.7021C51.5555 12.1652 52.3536 11.8706 53.1785 11.8706H63.677Z" fill="#666666"/>
<path d="M63.6769 39.1295L50.7748 28.0942C50.1442 27.5548 49.3442 27.2588 48.5174 27.2588H37.9443L50.9263 38.3004C51.5557 38.8358 52.3527 39.1295 53.1763 39.1295H63.6769Z" fill="#666666"/>
<path d="M169.095 13.6024C168.253 13.6024 167.547 13.317 166.977 12.7462C166.406 12.1754 166.122 11.4687 166.122 10.6261C166.122 9.78355 166.406 9.07687 166.977 8.50608C167.547 7.9353 168.253 7.6499 169.095 7.6499C169.91 7.6499 170.602 7.9353 171.172 8.50608C171.742 9.07687 172.027 9.78355 172.027 10.6261C172.027 11.4687 171.742 12.1754 171.172 12.7462C170.602 13.317 169.91 13.6024 169.095 13.6024Z" fill="#666666"/>
<path d="M171.376 16.5786V39.0431H166.732V16.5786H171.376Z" fill="#666666"/>
<path fill-rule="evenodd" clip-rule="evenodd" d="M183.908 17.2719C182.551 17.9787 181.477 18.8485 180.69 19.8812V16.5789H176.047V49.7252H180.69V35.7818C181.532 36.8145 182.618 37.6843 183.949 38.3911C185.279 39.0705 186.801 39.4103 188.511 39.4103C190.466 39.4103 192.245 38.9211 193.847 37.9425C195.476 36.9369 196.752 35.5507 197.675 33.784C198.599 31.99 199.06 29.9651 199.06 27.7092C199.06 25.4532 198.599 23.4554 197.675 21.716C196.752 19.9764 195.476 18.631 193.847 17.6797C192.245 16.7011 190.466 16.2119 188.511 16.2119C186.801 16.2119 185.266 16.5653 183.908 17.2719ZM193.358 23.7136C194.01 24.8281 194.335 26.1598 194.335 27.7092C194.335 29.2585 194.01 30.6175 193.358 31.7862C192.733 32.955 191.891 33.8519 190.833 34.4771C189.801 35.075 188.687 35.374 187.492 35.374C186.324 35.374 185.211 35.075 184.153 34.4771C183.12 33.8791 182.278 33.0093 181.628 31.8678C181.002 30.699 180.69 29.3399 180.69 27.7907C180.69 26.2414 181.002 24.8961 181.628 23.7544C182.278 22.6129 183.12 21.7431 184.153 21.1451C185.211 20.5472 186.324 20.2482 187.492 20.2482C188.687 20.2482 189.801 20.5472 190.833 21.1451C191.891 21.716 192.733 22.5721 193.358 23.7136Z" fill="#666666"/>
<path d="M210.373 39.4103C208.608 39.4103 207.02 39.0977 205.607 38.4725C204.223 37.8202 203.123 36.9504 202.309 35.8632C201.494 34.7489 201.06 33.5121 201.005 32.1531H205.811C205.893 33.1044 206.341 33.9062 207.156 34.5587C207.998 35.1838 209.043 35.4963 210.292 35.4963C211.596 35.4963 212.601 35.2517 213.306 34.7624C214.04 34.246 214.406 33.5937 214.406 32.8055C214.406 31.9629 213.999 31.3377 213.184 30.93C212.397 30.5224 211.133 30.0738 209.396 29.5846C207.713 29.1226 206.341 28.674 205.281 28.2392C204.223 27.8043 203.3 27.1384 202.513 26.2414C201.752 25.3445 201.372 24.1622 201.372 22.6944C201.372 21.4984 201.724 20.4113 202.431 19.4328C203.137 18.4271 204.142 17.6389 205.444 17.0681C206.775 16.4974 208.296 16.2119 210.006 16.2119C212.56 16.2119 214.61 16.8642 216.158 18.1689C217.733 19.4463 218.575 21.1995 218.683 23.4283H214.04C213.958 22.4226 213.551 21.6208 212.817 21.0229C212.085 20.4249 211.093 20.1259 209.845 20.1259C208.622 20.1259 207.685 20.3569 207.034 20.819C206.382 21.2811 206.056 21.8925 206.056 22.6536C206.056 23.2516 206.274 23.7544 206.708 24.1622C207.142 24.5699 207.672 24.8961 208.296 25.1406C208.921 25.3581 209.845 25.6435 211.066 25.9968C212.695 26.4317 214.026 26.8802 215.057 27.3423C216.117 27.7772 217.026 28.4295 217.786 29.2993C218.547 30.169 218.94 31.3241 218.968 32.7647C218.968 34.0422 218.615 35.1838 217.909 36.1894C217.203 37.1951 216.198 37.9833 214.894 38.5541C213.618 39.1248 212.111 39.4103 210.373 39.4103Z" fill="#666666"/>
<path d="M279.479 17.3127C278.094 16.5789 276.52 16.2119 274.754 16.2119C273.098 16.2119 271.55 16.6197 270.111 17.435C268.672 18.2232 267.612 19.2969 266.934 20.6559C266.173 19.2153 265.087 18.1146 263.675 17.3535C262.264 16.5925 260.661 16.2119 258.868 16.2119C257.539 16.2119 256.289 16.4701 255.121 16.9866C253.954 17.503 252.99 18.2232 252.229 19.1473V16.5789H247.586V39.0433H252.229V26.4861C252.229 24.4747 252.732 22.9391 253.736 21.879C254.769 20.7918 256.153 20.2482 257.891 20.2482C259.629 20.2482 261 20.7918 262.005 21.879C263.01 22.9391 263.512 24.4747 263.512 26.4861V39.0433H268.115V26.4861C268.115 24.4747 268.617 22.9391 269.622 21.879C270.654 20.7918 272.039 20.2482 273.776 20.2482C275.515 20.2482 276.886 20.7918 277.891 21.879C278.895 22.9391 279.398 24.4747 279.398 26.4861V39.0433H284V25.793C284 23.7544 283.593 22.0149 282.779 20.5743C281.991 19.1338 280.892 18.0466 279.479 17.3127Z" fill="#666666"/>
<path d="M242.885 39.0431V16.5786H238.242V29.0952C238.242 31.1065 237.725 32.6557 236.693 33.7429C235.688 34.803 234.318 35.333 232.579 35.333C230.841 35.333 229.471 34.803 228.466 33.7429C227.461 32.6557 226.958 31.1065 226.958 29.0952V16.5786H222.355V29.7882C222.355 31.8267 222.749 33.5662 223.537 35.0068C224.351 36.4473 225.451 37.5345 226.836 38.2684C228.248 39.0023 229.836 39.3692 231.601 39.3692C232.932 39.3692 234.182 39.111 235.349 38.5945C236.544 38.051 237.508 37.3171 238.242 36.393V39.0431H242.885Z" fill="#666666"/>
<path fill-rule="evenodd" clip-rule="evenodd" d="M146.176 37.9833C147.886 38.9346 149.8 39.4103 151.918 39.4103C154.064 39.4103 156.019 38.9346 157.784 37.9833C159.576 37.0049 160.988 35.6322 162.02 33.8654C163.052 32.0988 163.567 30.0738 163.567 27.7907C163.567 25.5076 163.066 23.4826 162.061 21.716C161.056 19.9492 159.684 18.5902 157.947 17.6389C156.209 16.6876 154.268 16.2119 152.122 16.2119C149.977 16.2119 148.035 16.6876 146.297 17.6389C144.56 18.5902 143.188 19.9492 142.183 21.716C141.179 23.4826 140.677 25.5076 140.677 27.7907C140.677 30.101 141.166 32.1396 142.143 33.9062C143.121 35.6458 144.464 37.0049 146.176 37.9833ZM155.259 34.5179C154.227 35.0885 153.113 35.374 151.918 35.374C150.045 35.374 148.484 34.7217 147.234 33.417C146.013 32.0852 145.402 30.2098 145.402 27.7907C145.402 26.1598 145.7 24.7873 146.297 23.673C146.895 22.5313 147.697 21.6752 148.7 21.1043C149.733 20.5337 150.846 20.2482 152.041 20.2482C153.235 20.2482 154.348 20.5337 155.381 21.1043C156.413 21.6752 157.24 22.5313 157.866 23.673C158.49 24.7873 158.802 26.1598 158.802 27.7907C158.802 29.4215 158.476 30.8077 157.825 31.9492C157.173 33.0909 156.317 33.947 155.259 34.5179Z" fill="#666666"/>
<path fill-rule="evenodd" clip-rule="evenodd" d="M121.721 38.0352C121.69 38.0181 121.658 38.0008 121.627 37.9833C119.916 37.0049 118.572 35.6458 117.594 33.9062C116.617 32.1396 116.128 30.101 116.128 27.7907C116.128 25.5076 116.63 23.4826 117.635 21.716C118.64 19.9492 120.011 18.5902 121.749 17.6389C123.487 16.6876 125.428 16.2119 127.574 16.2119C129.718 16.2119 131.661 16.6876 133.399 17.6389C135.136 18.5902 136.508 19.9492 137.512 21.716C138.517 23.4826 139.019 25.5076 139.019 27.7907C139.019 30.0738 138.503 32.0988 137.472 33.8654C136.44 35.6322 135.028 37.0049 133.236 37.9833C131.718 38.8013 130.06 39.2677 128.26 39.3822C130.465 40.3918 133.818 41.2069 135.7 41.6645C136.506 41.8605 137.043 41.9908 137.105 42.0429L137.108 42.0435V46.6946H120.19V42.0435H129.939C127.459 41.4829 124.091 39.6427 121.721 38.0352ZM127.37 35.374C128.565 35.374 129.678 35.0885 130.711 34.5179C131.769 33.947 132.625 33.0909 133.277 31.9492C133.927 30.8077 134.253 29.4215 134.253 27.7907C134.253 26.1598 133.941 24.7873 133.317 23.673C132.692 22.5313 131.864 21.6752 130.833 21.1043C129.8 20.5337 128.687 20.2482 127.492 20.2482C126.297 20.2482 125.184 20.5337 124.152 21.1043C123.147 21.6752 122.346 22.5313 121.749 23.673C121.152 24.7873 120.853 26.1598 120.853 27.7907C120.853 30.2098 121.464 32.0852 122.686 33.417C123.935 34.7217 125.496 35.374 127.37 35.374Z" fill="#666666"/>
<path fill-rule="evenodd" clip-rule="evenodd" d="M97.0769 37.9833C98.7876 38.9346 100.702 39.4103 102.82 39.4103C104.965 39.4103 106.92 38.9346 108.686 37.9833C110.478 37.0049 111.89 35.6322 112.922 33.8654C113.954 32.0988 114.47 30.0738 114.47 27.7907C114.47 25.5076 113.967 23.4826 112.962 21.716C111.958 19.9492 110.586 18.5902 108.849 17.6389C107.111 16.6876 105.169 16.2119 103.024 16.2119C100.879 16.2119 98.937 16.6876 97.1992 17.6389C95.4613 18.5902 94.0899 19.9492 93.0852 21.716C92.0805 23.4826 91.5781 25.5076 91.5781 27.7907C91.5781 30.101 92.0669 32.1396 93.0445 33.9062C94.0221 35.6458 95.3661 37.0049 97.0769 37.9833ZM106.16 34.5179C105.128 35.0885 104.015 35.374 102.82 35.374C100.946 35.374 99.3851 34.7217 98.136 33.417C96.914 32.0852 96.3031 30.2098 96.3031 27.7907C96.3031 26.1598 96.6017 24.7873 97.1992 23.673C97.7966 22.5313 98.5976 21.6752 99.6023 21.1043C100.634 20.5337 101.747 20.2482 102.942 20.2482C104.137 20.2482 105.25 20.5337 106.282 21.1043C107.314 21.6752 108.142 22.5313 108.767 23.673C109.392 24.7873 109.704 26.1598 109.704 27.7907C109.704 29.4215 109.378 30.8077 108.726 31.9492C108.075 33.0909 107.219 33.947 106.16 34.5179Z" fill="#666666"/>
<path d="M81.0556 35.292H90.6275V39.0429H76.4121V10.7075H81.0556V35.292Z" fill="#666666"/>
</g>
<defs>
<clipPath id="clip0_33_327">
<rect width="284" height="51" fill="white"/>
</clipPath>
</defs>
</svg>
