<svg width="213" height="51" viewBox="0 0 213 51" fill="none" xmlns="http://www.w3.org/2000/svg">
<g clip-path="url(#clip0_33_361)">
<path d="M101.964 0C100.776 5.26138 100.307 7.33835 93.2188 7.98793C100.307 7.33835 99.8377 9.41533 98.6497 14.6768C99.8306 9.44659 100.307 7.33835 107.283 6.69898C100.307 7.33835 100.783 5.23011 101.964 0Z" fill="#666666"/>
<path d="M105.027 13.9585C103.034 15.2238 100.614 15.5246 98.2733 15.8019C95.709 16.1056 93.1707 16.4204 90.6614 16.7454C91.3261 13.8044 91.6355 12.6126 95.6079 12.2486C91.5938 12.6164 91.8677 11.4035 92.5471 8.39421C91.8636 11.4214 91.5938 12.6165 87.5158 12.9901C91.5517 12.6203 91.3291 13.7869 90.6614 16.7454C83.1707 17.7158 75.939 18.7777 69.0498 19.9089C77.0317 18.9302 88.1257 17.9767 97.6471 17.1584C100.738 16.8927 104.884 16.5642 105.765 19.5554C106.043 20.5017 106.048 21.6678 105.88 23.0607H101.667L98.1892 39.5138H107.445L110.922 23.0607H106.226C106.945 20.862 107.842 19.1466 109.314 17.8239C111.187 16.1403 113.835 15.7879 116.341 15.6061C167.27 11.9108 207.367 14.611 208.026 22.1444C208.215 24.2893 205.186 26.6107 199.586 28.9566V28.9651L199.567 28.9728V28.9566C201.643 28.0739 205.819 25.8863 206.075 23.0607H197.209L193.705 31.1996C193.702 31.2141 193.691 31.2288 193.673 31.2434H193.65L193.66 31.1996C193.644 30.2928 193.62 29.386 193.588 28.4793C193.571 27.5726 193.554 26.6731 193.533 25.7809C193.517 24.8742 193.494 23.9675 193.462 23.0607H181.575L178.097 39.5138H186.238L188.153 30.4537L188.158 30.4318H188.179C188.183 30.4318 188.187 30.4321 188.189 30.433C188.194 30.4349 188.198 30.4389 188.198 30.445C188.198 30.4467 188.198 30.4486 188.198 30.4506L188.197 30.4537C188.25 31.96 188.297 33.4664 188.335 34.9728C188.373 36.4792 188.418 37.9929 188.468 39.5138H194.155L198.27 30.3879L198.274 30.366H198.297C198.306 30.366 198.311 30.3685 198.313 30.3736C198.314 30.3745 198.314 30.3757 198.314 30.3768V30.3786C198.314 30.3813 198.314 30.3843 198.314 30.3879L196.385 39.5138H204.972L208.041 24.9902C211.164 23.0801 212.762 21.2334 212.575 19.5183C211.685 11.2908 170.062 8.98488 117.231 13.8121C117.132 13.8213 117.031 13.8306 116.93 13.8401L116.916 13.8413C114.427 14.0729 111.439 14.3508 110.172 12.2395C108.956 10.212 109.732 6.77437 110.847 1.83496C109.479 7.89319 108.626 11.6743 105.027 13.9585Z" fill="#666666"/>
<path fill-rule="evenodd" clip-rule="evenodd" d="M70.0666 23.3681C68.478 22.7246 66.3603 22.4028 63.7139 22.4028C62.4501 22.4028 61.2734 22.4833 60.1837 22.6442C59.1089 22.805 58.1153 23.0391 57.2029 23.3462C56.2906 23.6534 55.4624 24.0189 54.7186 24.4431C53.9927 24.8525 53.3362 25.3205 52.7492 25.847C52.1652 26.3589 51.6538 26.9147 51.2148 27.5143C50.7938 28.0993 50.4409 28.7136 50.1562 29.3571C49.8896 29.9859 49.6851 30.6368 49.5428 31.3095C49.3697 32.1285 49.2994 32.9183 49.332 33.6788C49.3677 34.4247 49.5017 35.1267 49.7344 35.7847C49.9849 36.4282 50.337 37.0133 50.7908 37.5398C51.2594 38.0663 51.8326 38.5196 52.5103 38.8999C53.1914 39.2655 53.9787 39.5507 54.872 39.7555C55.7803 39.9602 56.7994 40.0626 57.9294 40.0626C58.4498 40.0626 58.9005 40.0407 59.2815 39.9968C59.6741 39.9675 60.0789 39.9164 60.4958 39.8432C60.9161 38.9804 61.3379 38.1102 61.7613 37.2326C62.2026 36.3405 62.6351 35.4556 63.0583 34.5782C63.179 34.328 63.2996 34.0785 63.42 33.8295C63.532 33.5981 63.6439 33.3671 63.7556 33.1365C63.9454 32.7455 64.1347 32.3559 64.3237 31.9676L62.7288 39.5141H72.1848L73.7799 31.9676H64.3237L74.4312 29.73C74.487 28.3406 74.1699 27.0975 73.4799 26.0006C72.793 24.8891 71.6552 24.0116 70.0666 23.3681ZM64.3237 31.9676C64.0806 32.2748 63.732 32.516 63.2786 32.6916C62.8284 32.8525 62.2242 32.9329 61.4659 32.9329C60.9752 32.9329 60.5623 32.8817 60.2272 32.7793C59.8919 32.6769 59.6314 32.5381 59.4454 32.3625C59.2595 32.1871 59.1362 31.9968 59.0753 31.7922C59.0176 31.5728 59.0134 31.3461 59.0629 31.1121C59.131 30.7903 59.2761 30.4905 59.4984 30.2126C59.7387 29.9201 60.0796 29.6787 60.5212 29.4886C60.9777 29.2985 61.5552 29.2036 62.2541 29.2036C62.9974 29.2036 63.5675 29.3205 63.964 29.5544C64.3606 29.7885 64.59 30.1102 64.6521 30.5197C64.7142 30.9293 64.6048 31.4119 64.3237 31.9676Z" fill="#666666"/>
<path d="M90.4047 22.4469C89.9086 22.4175 89.3915 22.4028 88.8536 22.4028C87.4858 22.4028 86.2078 22.5052 85.0197 22.71C83.8496 22.9001 82.7708 23.1853 81.7835 23.5655C80.7993 23.9312 79.9095 24.3772 79.1143 24.9037C78.3371 25.4157 77.6485 26.0006 77.0484 26.6588C76.4633 27.3168 75.9699 28.0335 75.5681 28.8086C75.1813 29.5838 74.8966 30.4027 74.7143 31.2656C74.6971 31.3467 74.681 31.4277 74.666 31.5085C85.2512 31.2902 87.7924 28.6971 90.4047 22.4469Z" fill="#666666"/>
<path d="M74.6666 31.5082C74.5594 32.0835 74.5048 32.6537 74.5029 33.2177C74.5156 33.8614 74.6088 34.4755 74.7825 35.0605C74.971 35.6456 75.2402 36.2012 75.5897 36.7278C75.9574 37.2397 76.416 37.7077 76.9656 38.1318C77.5302 38.5559 78.2038 38.9216 78.9863 39.2287C79.772 39.5212 80.6681 39.7479 81.6749 39.9087C82.2926 40.0151 82.9555 40.0894 83.6633 40.1312C85.8158 33.8855 85.2333 31.3464 74.6666 31.5082Z" fill="#666666"/>
<path d="M83.7402 40.1357C84.176 40.16 84.6286 40.1721 85.0981 40.1721C86.8674 40.1721 88.4551 40.0112 89.8613 39.6895C91.2792 39.3823 92.53 38.9509 93.6139 38.3951C94.701 37.8248 95.628 37.1666 96.3952 36.4208C97.1656 35.6602 97.7833 34.8486 98.2481 33.9858C98.716 33.1082 99.049 32.2014 99.2468 31.2654C99.2608 31.1988 99.2743 31.1325 99.2868 31.0664C88.8723 31.2824 86.3398 33.9116 83.7402 40.1357Z" fill="#666666"/>
<path d="M99.2865 31.0666C88.904 31.2243 88.3464 28.655 90.4826 22.4517C92.4744 22.5765 94.1259 22.9405 95.4369 23.5436C97.09 24.3041 98.2294 25.3497 98.8551 26.6807C99.4565 27.96 99.6002 29.4223 99.2865 31.0666Z" fill="#666666"/>
<path fill-rule="evenodd" clip-rule="evenodd" d="M147.161 29.6303L156.194 29.2255C156.636 28.187 156.73 27.251 156.475 26.4174C156.22 25.5838 155.659 24.8672 154.789 24.2675C153.934 23.6679 152.812 23.2072 151.423 22.8854C150.05 22.5637 148.447 22.4028 146.619 22.4028C145.326 22.4028 144.067 22.4833 142.843 22.6442C141.635 22.805 140.5 23.0391 139.439 23.3462C138.393 23.6534 137.448 24.0408 136.607 24.5089C135.781 24.9623 135.104 25.4961 134.573 26.1103C134.044 26.7099 133.702 27.3827 133.543 28.1286C133.395 28.8305 133.439 29.4667 133.675 30.0371C133.915 30.5928 134.416 31.0755 135.176 31.485C135.937 31.8944 137.021 32.2163 138.428 32.4502C139.36 32.5952 140.465 32.6922 141.741 32.7414L132.508 33.3497C132.15 34.549 132.132 35.58 132.456 36.4429C132.794 37.3058 133.424 38.0151 134.347 38.5709C135.274 39.112 136.453 39.5141 137.883 39.7774C139.315 40.0407 140.938 40.1723 142.752 40.1723C144.387 40.1723 145.937 40.0479 147.402 39.7993C148.879 39.5654 150.202 39.2143 151.372 38.7463C152.559 38.2637 153.524 37.6713 154.268 36.9695C155.029 36.2528 155.506 35.4337 155.7 34.5124C155.881 33.6641 155.841 32.9329 155.585 32.3186C155.332 31.6897 154.8 31.1779 153.991 30.783C153.186 30.3735 152.053 30.0736 150.591 29.8835C149.619 29.757 148.475 29.6726 147.161 29.6303ZM146.907 29.6226C146.322 29.6065 145.703 29.5984 145.053 29.5984H144.496C144.095 29.5984 143.772 29.5764 143.528 29.5325C143.3 29.4886 143.137 29.4156 143.04 29.3132C142.946 29.1962 142.917 29.0499 142.953 28.8745C142.985 28.7282 143.059 28.5893 143.175 28.4576C143.307 28.326 143.464 28.2163 143.647 28.1286C143.847 28.0262 144.07 27.953 144.318 27.9092C144.567 27.8507 144.841 27.8215 145.139 27.8215C145.615 27.8215 146.024 27.8872 146.369 28.0188C146.73 28.1359 146.971 28.3334 147.09 28.6112C147.212 28.8704 147.15 29.2075 146.907 29.6226ZM142.145 32.7552C141.951 33.1754 141.909 33.5272 142.022 33.8104C142.153 34.1029 142.404 34.3223 142.775 34.4685C143.146 34.6148 143.576 34.6878 144.067 34.6878C144.365 34.6878 144.636 34.6659 144.883 34.6221C145.146 34.5782 145.383 34.5124 145.594 34.4247C145.806 34.3368 145.979 34.2272 146.11 34.0956C146.245 33.9494 146.331 33.7885 146.368 33.6129C146.443 33.2619 146.304 33.0352 145.954 32.9329C145.62 32.8305 145.102 32.7793 144.404 32.7793H143.846C143.25 32.7793 142.683 32.7713 142.145 32.7552Z" fill="#666666"/>
<path d="M168.092 23.0605H158.837L156.643 33.437C156.456 34.3291 156.485 35.1408 156.731 35.8721C156.982 36.5887 157.399 37.2175 157.983 37.7587C158.586 38.2852 159.308 38.7313 160.154 39.0969C161.012 39.4625 161.952 39.7331 162.97 39.9085C164.003 40.0841 165.063 40.1718 166.148 40.1718C167.516 40.1718 168.877 40.0328 170.228 39.755C171.595 39.4772 172.858 39.0603 174.017 38.5046C175.178 37.9342 176.152 37.2322 176.938 36.3986C177.74 35.5503 178.262 34.5631 178.5 33.437L180.693 23.0605H171.438L169.606 31.7258C169.517 32.15 169.277 32.4717 168.89 32.6911C168.502 32.9104 168.091 33.0202 167.66 33.0202C167.452 33.0202 167.25 32.9909 167.054 32.9325C166.874 32.874 166.711 32.7935 166.569 32.6911C166.446 32.5741 166.349 32.4351 166.279 32.2743C166.223 32.1134 166.219 31.9233 166.265 31.7039L168.092 23.0605Z" fill="#666666"/>
<path fill-rule="evenodd" clip-rule="evenodd" d="M125.934 23.061C127.316 23.061 128.481 23.2511 129.426 23.6313C130.389 23.997 131.137 24.5015 131.671 25.1451C132.221 25.774 132.584 26.4905 132.755 27.2949C132.927 28.0993 132.922 28.9329 132.74 29.7958C132.545 30.7172 132.181 31.5947 131.648 32.4283C131.133 33.2474 130.458 33.9786 129.623 34.6221C128.803 35.2656 127.84 35.7775 126.734 36.1577C125.631 36.5234 124.402 36.7062 123.05 36.7062H118.255L118.228 36.7281H118.205L118.201 36.7501L117.617 39.5141H108.339L111.816 23.061H125.934ZM121.313 31.9457C121.759 31.9457 122.146 31.8726 122.474 31.7263C122.82 31.5654 123.093 31.368 123.291 31.1341C123.492 30.8855 123.619 30.6368 123.671 30.3882C123.727 30.1249 123.704 29.8836 123.601 29.6643C123.502 29.4302 123.319 29.2401 123.053 29.0938C122.786 28.9476 122.423 28.8745 121.962 28.8745H119.91C119.895 28.8745 119.879 28.8818 119.861 28.8965L119.856 28.9184L119.221 31.9238C119.236 31.9238 119.242 31.9311 119.239 31.9457H121.313Z" fill="#666666"/>
<path fill-rule="evenodd" clip-rule="evenodd" d="M14.9389 33.0646L14.9482 33.0207L17.0533 23.061H7.79797L4.81773 37.1608C1.51845 39.1285 -0.176435 41.0314 0.0145416 42.795C0.975587 51.6704 49.3382 53.6548 108.035 47.2273C119.157 46.0094 129.851 44.5769 139.875 42.9945C134.563 43.4725 128.903 43.956 123.102 44.4516L123.095 44.4521L123.084 44.4531L123.077 44.4536L123.07 44.4543L123.054 44.4557C117.958 44.8909 112.753 45.3355 107.577 45.794C51.3927 50.7712 5.27204 48.2527 4.56385 40.1689C4.37706 38.036 7.3698 35.7291 12.9092 33.3967C8.96213 35.1432 7.27772 37.4279 6.80488 39.5141H22.3181L23.6813 33.0646H14.9389ZM12.6329 33.4826C12.5434 33.5183 12.4544 33.5539 12.3661 33.5896C12.6895 33.462 13.0189 33.3341 13.3537 33.2063C13.4062 33.1845 13.4591 33.1629 13.5122 33.1413C13.3614 33.1984 13.2122 33.2557 13.0645 33.3131C12.9869 33.3431 12.9097 33.3732 12.8329 33.4035C12.7659 33.4298 12.6992 33.4562 12.6329 33.4826Z" fill="#666666"/>
<path d="M40.2621 22.4469C39.766 22.4175 39.2491 22.4028 38.7111 22.4028C37.3432 22.4028 36.0652 22.5052 34.8771 22.71C33.707 22.9001 32.6283 23.1853 31.6409 23.5655C30.6567 23.9312 29.767 24.3772 28.9718 24.9037C28.1945 25.4157 27.5059 26.0006 26.9059 26.6588C26.3208 27.3168 25.8273 28.0335 25.4255 28.8086C25.0387 29.5838 24.7541 30.4027 24.5717 31.2656C24.5629 31.3074 24.5544 31.3491 24.546 31.3908C24.5383 31.4301 24.5307 31.4694 24.5234 31.5085C35.1088 31.2902 37.6498 28.6971 40.2621 22.4469Z" fill="#666666"/>
<path d="M24.5231 31.5082C24.4159 32.0835 24.3613 32.6537 24.3594 33.2177C24.3721 33.8614 24.4652 34.4755 24.6389 35.0605C24.8275 35.6456 25.0966 36.2012 25.4462 36.7278C25.8139 37.2397 26.2724 37.7077 26.8221 38.1318C27.3866 38.5559 28.0602 38.9216 28.8428 39.2287C29.6285 39.5212 30.5247 39.7479 31.5314 39.9087C32.1491 40.0151 32.8119 40.0894 33.5198 40.1312C35.6722 33.8855 35.0898 31.3464 24.5231 31.5082Z" fill="#666666"/>
<path d="M33.5967 40.1357C34.0324 40.16 34.4851 40.1721 34.9546 40.1721C36.7239 40.1721 38.3116 40.0112 39.7178 39.6895C41.1356 39.3823 42.3865 38.9509 43.4705 38.3951C44.5574 37.8248 45.4845 37.1666 46.2518 36.4208C47.022 35.6602 47.6397 34.8486 48.1045 33.9858C48.5725 33.1082 48.9054 32.2014 49.1032 31.2654C49.1174 31.1988 49.1307 31.1325 49.1433 31.0664C38.7287 31.2824 36.1963 33.9116 33.5967 40.1357Z" fill="#666666"/>
<path d="M49.1438 31.0666C38.7613 31.2243 38.2038 28.655 40.34 22.4517C42.3318 22.5765 43.9832 22.9405 45.2943 23.5436C46.9475 24.3041 48.0868 25.3497 48.7125 26.6807C49.3139 27.96 49.4576 29.4223 49.1438 31.0666Z" fill="#666666"/>
<path d="M208.725 39.5138C209.551 39.5138 210.22 38.8407 210.22 38.0103C210.22 37.18 209.551 36.5068 208.725 36.5068C207.899 36.5068 207.23 37.18 207.23 38.0103C207.23 38.8407 207.899 39.5138 208.725 39.5138Z" fill="#666666"/>
</g>
<defs>
<clipPath id="clip0_33_361">
<rect width="213" height="51" fill="white"/>
</clipPath>
</defs>
</svg>
