<svg width="304" height="55" viewBox="0 0 304 55" fill="none" xmlns="http://www.w3.org/2000/svg">
<g clip-path="url(#clip0_33_314)">
<path fill-rule="evenodd" clip-rule="evenodd" d="M0 18.186V38.6512H6.35983C7.02796 38.6512 7.68956 38.7835 8.30691 39.0406C8.9241 39.2977 9.48509 39.6745 9.95742 40.1497C10.4299 40.6248 10.8047 41.1888 11.0605 41.8096C11.316 42.4303 11.4477 43.0955 11.4477 43.7674V50.1628H26.7113L45.7908 30.9767V10.5116H39.431C38.7628 10.5116 38.1012 10.3793 37.4838 10.1222C36.8667 9.86507 36.3057 9.48819 35.8333 9.01311C35.3609 8.53802 34.9861 7.97398 34.7303 7.35326C34.4747 6.73254 34.3431 6.06724 34.3431 5.39535V-1H19.0795L0 18.186ZM21.6234 37.3721H12.7197V23.3023L24.1674 11.7907H33.0711V25.8605L21.6234 37.3721Z" fill="#666666"/>
<path d="M293.275 14.6631C296.488 14.6631 299.072 15.6608 301.024 17.6561C303.008 19.6199 304.001 22.3754 304.001 25.9226V41.363H297.386V26.8254C297.386 24.7666 296.866 23.1988 295.827 22.122C294.788 21.0134 293.371 20.4592 291.575 20.4592C289.78 20.4592 288.346 21.0134 287.275 22.122C286.236 23.1988 285.717 24.7666 285.717 26.8254V41.363H279.103V26.8254C279.103 24.7666 278.583 23.1988 277.544 22.122C276.504 21.0134 275.086 20.4592 273.291 20.4592C271.465 20.4592 270.016 21.0134 268.945 22.122C267.906 23.1988 267.386 24.7666 267.386 26.8254V41.363H260.771V15.0431H267.386V18.2262C268.237 17.1177 269.323 16.2467 270.646 15.6133C272 14.9798 273.48 14.6631 275.086 14.6631C277.134 14.6631 278.961 15.1065 280.567 15.9933C282.174 16.8485 283.418 18.0837 284.299 19.699C285.15 18.1787 286.379 16.9593 287.984 16.0408C289.622 15.1223 291.386 14.6631 293.275 14.6631Z" fill="#666666"/>
<path d="M255.898 15.043V41.3629H249.236V38.0372C248.387 39.1775 247.267 40.0801 245.882 40.7452C244.528 41.3786 243.047 41.6955 241.44 41.6955C239.394 41.6955 237.583 41.2679 236.008 40.4127C234.433 39.5259 233.189 38.2431 232.276 36.5645C231.393 34.8541 230.953 32.8272 230.953 30.4834V15.043H237.567V29.5332C237.567 31.6235 238.086 33.2389 239.125 34.3791C240.166 35.4876 241.583 36.0418 243.378 36.0418C245.205 36.0418 246.638 35.4876 247.677 34.3791C248.717 33.2389 249.236 31.6235 249.236 29.5332V15.043H255.898Z" fill="#666666"/>
<path d="M217.114 41.7908C214.972 41.7908 213.05 41.4107 211.35 40.6505C209.649 39.8588 208.295 38.7977 207.287 37.4675C206.31 36.1372 205.775 34.6645 205.681 33.0492H212.342C212.468 34.0627 212.956 34.902 213.807 35.5671C214.689 36.2323 215.775 36.5648 217.066 36.5648C218.327 36.5648 219.303 36.3114 219.995 35.8047C220.72 35.2979 221.083 34.6486 221.083 33.8569C221.083 33.0017 220.642 32.3682 219.76 31.9565C218.909 31.5131 217.539 31.038 215.649 30.5312C213.697 30.0561 212.09 29.5652 210.831 29.0585C209.602 28.5517 208.531 27.7757 207.618 26.7306C206.735 25.6853 206.295 24.2759 206.295 22.5022C206.295 21.0453 206.705 19.7151 207.524 18.5115C208.373 17.3079 209.57 16.3578 211.113 15.661C212.689 14.9641 214.531 14.6157 216.641 14.6157C219.76 14.6157 222.248 15.4076 224.106 16.9912C225.965 18.5432 226.989 20.6493 227.177 23.3099H220.846C220.752 22.2647 220.311 21.4412 219.523 20.8394C218.768 20.206 217.744 19.8892 216.453 19.8892C215.256 19.8892 214.326 20.111 213.665 20.5544C213.035 20.9978 212.72 21.6154 212.72 22.4072C212.72 23.2941 213.161 23.9751 214.043 24.4501C214.925 24.8936 216.295 25.3527 218.154 25.8278C220.042 26.303 221.602 26.7939 222.831 27.3006C224.059 27.8074 225.114 28.5992 225.997 29.676C226.91 30.7213 227.382 32.1148 227.413 33.8569C227.413 35.3771 226.989 36.739 226.138 37.9426C225.319 39.1461 224.122 40.0963 222.547 40.7932C221.004 41.4583 219.193 41.7908 217.114 41.7908Z" fill="#666666"/>
<path d="M183.347 18.8441C184.198 17.6405 185.363 16.6428 186.843 15.851C188.354 15.0276 190.072 14.6157 191.992 14.6157C194.228 14.6157 196.244 15.1701 198.04 16.2786C199.867 17.3871 201.299 18.9707 202.34 21.0295C203.411 23.0566 203.945 25.4161 203.945 28.1082C203.945 30.8004 203.411 33.1917 202.34 35.282C201.299 37.3408 199.867 38.9403 198.04 40.0805C196.244 41.2206 194.228 41.7908 191.992 41.7908C190.072 41.7908 188.371 41.3948 186.89 40.6031C185.442 39.8112 184.26 38.8136 183.347 37.6101V53.9056H176.732V15.0433H183.347V18.8441ZM197.189 28.1082C197.189 26.5246 196.859 25.1627 196.197 24.0225C195.568 22.8506 194.717 21.9639 193.646 21.362C192.607 20.7602 191.473 20.4594 190.245 20.4594C189.048 20.4594 187.914 20.7761 186.843 21.4095C185.803 22.0113 184.953 22.8981 184.292 24.07C183.662 25.2418 183.347 26.6197 183.347 28.2033C183.347 29.7869 183.662 31.1647 184.292 32.3366C184.953 33.5085 185.803 34.4111 186.843 35.0445C187.914 35.6463 189.048 35.9473 190.245 35.9473C191.473 35.9473 192.607 35.6305 193.646 34.9971C194.717 34.3635 195.568 33.4609 196.197 32.289C196.859 31.1171 197.189 29.7236 197.189 28.1082Z" fill="#666666"/>
<path d="M168.59 11.9077C167.425 11.9077 166.449 11.5434 165.662 10.8149C164.905 10.0548 164.527 9.12047 164.527 8.01192C164.527 6.90339 164.905 5.98489 165.662 5.25642C166.449 4.49629 167.425 4.11621 168.59 4.11621C169.756 4.11621 170.717 4.49629 171.472 5.25642C172.26 5.98489 172.654 6.90339 172.654 8.01192C172.654 9.12047 172.26 10.0548 171.472 10.8149C170.717 11.5434 169.756 11.9077 168.59 11.9077ZM171.85 15.0432V41.3631H165.236V15.0432H171.85Z" fill="#666666"/>
<path d="M148.384 41.7908C145.864 41.7908 143.597 41.2365 141.581 40.128C139.565 38.9878 137.975 37.3883 136.809 35.3296C135.676 33.271 135.108 30.8955 135.108 28.2033C135.108 25.5111 135.691 23.1357 136.856 21.0769C138.053 19.0183 139.676 17.4347 141.723 16.3261C143.77 15.1859 146.054 14.6157 148.573 14.6157C151.093 14.6157 153.376 15.1859 155.424 16.3261C157.471 17.4347 159.077 19.0183 160.242 21.0769C161.439 23.1357 162.038 25.5111 162.038 28.2033C162.038 30.8955 161.424 33.271 160.195 35.3296C158.998 37.3883 157.361 38.9878 155.282 40.128C153.235 41.2365 150.935 41.7908 148.384 41.7908ZM148.384 35.9947C149.581 35.9947 150.699 35.7096 151.739 35.1395C152.81 34.5377 153.66 33.651 154.29 32.4791C154.921 31.3072 155.235 29.8819 155.235 28.2033C155.235 25.7012 154.573 23.785 153.25 22.4548C151.959 21.0928 150.368 20.4118 148.479 20.4118C146.589 20.4118 144.999 21.0928 143.707 22.4548C142.448 23.785 141.818 25.7012 141.818 28.2033C141.818 30.7054 142.431 32.6374 143.66 33.9994C144.92 35.3296 146.495 35.9947 148.384 35.9947Z" fill="#666666"/>
<path d="M119.911 41.7908C117.391 41.7908 115.123 41.2365 113.107 40.128C111.091 38.9878 109.501 37.3883 108.336 35.3296C107.202 33.271 106.635 30.8955 106.635 28.2033C106.635 25.5111 107.217 23.1357 108.383 21.0769C109.58 19.0183 111.202 17.4347 113.249 16.3261C115.296 15.1859 117.58 14.6157 120.1 14.6157C122.619 14.6157 124.903 15.1859 126.95 16.3261C128.997 17.4347 130.603 19.0183 131.769 21.0769C132.965 23.1357 133.565 25.5111 133.565 28.2033C133.565 30.8955 132.95 33.271 131.722 35.3296C130.525 37.3883 128.888 38.9878 126.808 40.128C124.761 41.2365 122.462 41.7908 119.911 41.7908ZM119.911 35.9947C121.107 35.9947 122.226 35.7096 123.265 35.1395C124.336 34.5377 125.186 33.651 125.816 32.4791C126.446 31.3072 126.761 29.8819 126.761 28.2033C126.761 25.7012 126.1 23.785 124.777 22.4548C123.485 21.0928 121.895 20.4118 120.005 20.4118C118.115 20.4118 116.525 21.0928 115.233 22.4548C113.974 23.785 113.343 25.7012 113.343 28.2033C113.343 30.7054 113.958 32.6374 115.186 33.9994C116.446 35.3296 118.021 35.9947 119.911 35.9947Z" fill="#666666"/>
<path d="M91.4359 41.7908C88.9162 41.7908 86.6485 41.2365 84.6327 40.128C82.6169 38.9878 81.0263 37.3883 79.8609 35.3296C78.7271 33.271 78.1602 30.8955 78.1602 28.2033C78.1602 25.5111 78.7428 23.1357 79.9082 21.0769C81.105 19.0183 82.7272 17.4347 84.7744 16.3261C86.8216 15.1859 89.1052 14.6157 91.6249 14.6157C94.1446 14.6157 96.4281 15.1859 98.4754 16.3261C100.523 17.4347 102.129 19.0183 103.294 21.0769C104.491 23.1357 105.09 25.5111 105.09 28.2033C105.09 30.8955 104.475 33.271 103.247 35.3296C102.05 37.3883 100.412 38.9878 98.3337 40.128C96.2864 41.2365 93.9871 41.7908 91.4359 41.7908ZM91.4359 35.9947C92.6328 35.9947 93.7509 35.7096 94.7904 35.1395C95.8612 34.5377 96.7117 33.651 97.3415 32.4791C97.9714 31.3072 98.2865 29.8819 98.2865 28.2033C98.2865 25.7012 97.6251 23.785 96.3021 22.4548C95.0108 21.0928 93.4202 20.4118 91.5304 20.4118C89.6407 20.4118 88.0501 21.0928 86.7586 22.4548C85.4988 23.785 84.8689 25.7012 84.8689 28.2033C84.8689 30.7054 85.4831 32.6374 86.7115 33.9994C87.9713 35.3296 89.5462 35.9947 91.4359 35.9947Z" fill="#666666"/>
<path d="M66.3965 36.0899H77.2629V41.3632H59.7822V8.20215H66.3965V36.0899Z" fill="#666666"/>
<path d="M108.379 44.8988C110.054 49.9092 114.763 53.5182 120.311 53.5182H121.001C127.952 53.5182 133.586 47.8521 133.586 40.8626V40.1475H126.763V40.8626C126.763 44.0628 124.183 46.657 121.001 46.657H120.311C118.689 46.657 117.223 45.9832 116.176 44.8988H108.379Z" fill="#666666"/>
</g>
<defs>
<clipPath id="clip0_33_314">
<rect width="304" height="55" fill="white"/>
</clipPath>
</defs>
</svg>
