<svg width="500" height="500" viewBox="0 0 500 500" fill="none" xmlns="http://www.w3.org/2000/svg">
<path d="M446.438 355.313C446.371 378.848 440.701 402.029 429.896 422.938C419.177 443.667 403.585 461.483 384.458 474.854C365.521 488.089 343.594 496.414 320.646 499.083C297.751 501.727 274.558 498.619 253.167 490.042C231.618 481.386 212.53 467.564 197.583 449.792C182.469 431.847 171.888 410.533 166.729 387.646C161.533 364.665 161.883 340.777 167.75 317.958C173.559 295.241 184.749 274.254 200.375 256.771L104 355.313L53.5625 303.667L161.917 193.979C176.361 179.047 184.34 159.024 184.125 138.25V0H255.167V137.771C255.481 157.701 251.805 177.492 244.354 195.979C236.958 214.35 225.909 231.027 211.875 245L208.688 248.25C228.881 229.408 254.163 216.912 281.396 212.313C308.54 207.797 336.413 211.422 361.5 222.729C386.793 234.181 408.211 252.74 423.146 276.146C438.244 299.799 446.32 327.251 446.438 355.313ZM382.083 355.313C382.244 339.578 377.821 324.138 369.354 310.875C360.995 297.752 348.91 287.423 334.646 281.208C320.499 275.069 304.819 273.376 289.687 276.354C274.487 279.376 260.549 286.904 249.687 297.958C238.703 309.145 231.236 323.304 228.208 338.688C225.14 354.145 226.624 370.161 232.479 384.792C238.354 399.375 248.313 411.854 261.104 420.646C273.829 429.402 288.907 434.102 304.354 434.125C314.571 434.217 324.701 432.242 334.135 428.318C343.569 424.394 352.112 418.602 359.25 411.292C366.479 403.979 372.208 395.25 376.125 385.646C380.042 376.042 382.063 365.729 382.083 355.313Z" fill="black"/>
</svg>
