<svg width="21" height="20" viewBox="0 0 21 20" fill="none" xmlns="http://www.w3.org/2000/svg">
<g clip-path="url(#clip0_209_312)">
<path d="M4.1379 0.15625C3.78162 0.15625 3.49414 0.440674 3.49414 0.79069V3.43123C3.49414 3.78125 3.78162 4.06559 4.1379 4.06559C4.49414 4.06559 4.78166 3.78125 4.78166 3.43123V0.79069C4.78166 0.440674 4.49414 0.15625 4.1379 0.15625Z" fill="#C8B6FF"/>
<path d="M16.8625 0.15625C16.5063 0.15625 16.2188 0.440674 16.2188 0.79069V3.43123C16.2188 3.78125 16.5063 4.06559 16.8625 4.06559C17.2187 4.06559 17.5063 3.78125 17.5063 3.43123V0.79069C17.5063 0.440674 17.2187 0.15625 16.8625 0.15625Z" fill="#C8B6FF"/>
<path d="M19.1658 1.79688H18.1312V3.43111C18.1312 4.12569 17.5621 4.69055 16.8626 4.69055C16.1628 4.69055 15.5937 4.12569 15.5937 3.43111V1.79688H5.40629V3.43111C5.40629 4.12569 4.83712 4.69055 4.13749 4.69055C3.43791 4.69055 2.86873 4.12569 2.86873 3.43111V1.79688H1.83439C1.09859 1.79688 0.5 2.38831 0.5 3.11552V5.99365H20.5V3.11552C20.5 2.38831 19.9016 1.79688 19.1658 1.79688Z" fill="#C8B6FF"/>
<path d="M0.5 6.6665V18.573C0.5 19.3002 1.09859 19.8916 1.83439 19.8916H19.1658C19.9016 19.8916 20.5 19.3002 20.5 18.573V6.6665H0.5Z" fill="#C8B6FF"/>
</g>
<defs>
<clipPath id="clip0_209_312">
<rect width="20" height="20" fill="white" transform="translate(0.5)"/>
</clipPath>
</defs>
</svg>
