<svg width="56" height="56" viewBox="0 0 56 56" fill="none" xmlns="http://www.w3.org/2000/svg">
<path d="M27.9999 13.9378C20.0534 13.9378 13.6437 20.2111 13.6437 27.9886C13.6437 35.7661 20.0534 42.0394 27.9999 42.0394C35.9465 42.0394 42.3562 35.7661 42.3562 27.9886C42.3562 20.2111 35.9465 13.9378 27.9999 13.9378ZM27.9999 37.1235C22.8647 37.1235 18.6665 33.0268 18.6665 27.9886C18.6665 22.9504 22.8522 18.8537 27.9999 18.8537C33.1477 18.8537 37.3334 22.9504 37.3334 27.9886C37.3334 33.0268 33.1352 37.1235 27.9999 37.1235ZM46.292 13.363C46.292 15.1851 44.7927 16.6403 42.9435 16.6403C41.0818 16.6403 39.5949 15.1729 39.5949 13.363C39.5949 11.5532 41.0943 10.0857 42.9435 10.0857C44.7927 10.0857 46.292 11.5532 46.292 13.363ZM55.8004 16.6892C55.588 12.2991 54.5634 8.41038 51.2773 5.20644C48.0038 2.00251 44.0305 0.999756 39.5449 0.779639C34.9219 0.522835 21.0655 0.522835 16.4425 0.779639C11.9694 0.987528 7.99613 1.99028 4.71006 5.19422C1.42399 8.39815 0.411926 12.2869 0.187024 16.677C-0.0753621 21.2016 -0.0753621 34.7633 0.187024 39.288C0.399432 43.6781 1.42399 47.5668 4.71006 50.7707C7.99613 53.9747 11.9569 54.9774 16.4425 55.1976C21.0655 55.4544 34.9219 55.4544 39.5449 55.1976C44.0305 54.9897 48.0038 53.9869 51.2773 50.7707C54.5509 47.5668 55.5755 43.6781 55.8004 39.288C56.0628 34.7633 56.0628 21.2139 55.8004 16.6892ZM49.828 44.1428C48.8534 46.5396 46.9667 48.3861 44.5053 49.3522C40.8194 50.783 32.0732 50.4528 27.9999 50.4528C23.9267 50.4528 15.168 50.7707 11.4946 49.3522C9.04568 48.3984 7.159 46.5518 6.17193 44.1428C4.71006 40.5353 5.04741 31.9752 5.04741 27.9886C5.04741 24.002 4.72255 15.4297 6.17193 11.8344C7.1465 9.43759 9.03318 7.59105 11.4946 6.62498C15.1805 5.19422 23.9267 5.52439 27.9999 5.52439C32.0732 5.52439 40.8319 5.20644 44.5053 6.62498C46.9542 7.57882 48.8409 9.42536 49.828 11.8344C51.2898 15.4419 50.9525 24.002 50.9525 27.9886C50.9525 31.9752 51.2898 40.5475 49.828 44.1428Z" fill="#C8B6FF"/>
</svg>
