<svg width="16" height="20" viewBox="0 0 16 20" fill="none" xmlns="http://www.w3.org/2000/svg">
<path fill-rule="evenodd" clip-rule="evenodd" d="M2.51247 12.6405L8 19.5L13.4876 12.6405C14.5475 11.3156 15.125 9.66933 15.125 7.97253V7.625C15.125 3.68997 11.935 0.5 8 0.5C4.06497 0.5 0.875 3.68997 0.875 7.625V7.97253C0.875 9.66933 1.45248 11.3156 2.51247 12.6405ZM8 10C9.31168 10 10.375 8.93668 10.375 7.625C10.375 6.31332 9.31168 5.25 8 5.25C6.68832 5.25 5.625 6.31332 5.625 7.625C5.625 8.93668 6.68832 10 8 10Z" fill="#C8B6FF"/>
</svg>
