<svg width="43" height="32" viewBox="0 0 43 32" fill="none" xmlns="http://www.w3.org/2000/svg">
<path d="M42.1854 10.5667C42.5129 10.3083 43 10.55 43 10.9583V28C43 30.2083 41.1943 32 38.9688 32H4.03125C1.80566 32 0 30.2083 0 28V10.9667C0 10.55 0.478711 10.3167 0.814648 10.575C2.6959 12.025 5.19023 13.8667 13.7566 20.0417C15.5287 21.325 18.5186 24.025 21.5 24.0083C24.4982 24.0333 27.5469 21.275 29.2518 20.0417C37.8182 13.8667 40.3041 12.0167 42.1854 10.5667ZM21.5 21.3333C23.4484 21.3667 26.2535 18.9 27.6645 17.8833C38.8092 9.85833 39.6574 9.15833 42.2273 7.15833C42.7145 6.78333 43 6.2 43 5.58333V4C43 1.79167 41.1943 0 38.9688 0H4.03125C1.80566 0 0 1.79167 0 4V5.58333C0 6.2 0.285547 6.775 0.772656 7.15833C3.34258 9.15 4.19082 9.85833 15.3355 17.8833C16.7465 18.9 19.5516 21.3667 21.5 21.3333Z" fill="#C8B6FF"/>
</svg>
