<svg width="99" height="98" viewBox="0 0 99 98" fill="none" xmlns="http://www.w3.org/2000/svg">
<g clip-path="url(#clip0_132_18)">
<path d="M5.56031 68.2395C5.76252 68.2395 5.93369 68.0732 5.96277 67.839L7.062 59.1265L5.96603 50.2156C5.93337 49.9814 5.76252 49.8138 5.56031 49.8138C5.35288 49.8138 5.17615 49.985 5.14871 50.2156L4.18799 59.1265L5.14871 67.8361C5.17615 68.07 5.35288 68.2395 5.56031 68.2395Z" fill="#C8B6FF"/>
<path d="M1.93586 64.9258C2.13447 64.9258 2.29552 64.7713 2.32459 64.5403L3.17654 59.1261L2.32459 53.6107C2.29519 53.3869 2.13447 53.2252 1.93586 53.2252C1.72843 53.2252 1.56771 53.3869 1.53831 53.6139L0.826172 59.1265L1.53831 64.539C1.56771 64.768 1.72843 64.9258 1.93586 64.9258Z" fill="#C8B6FF"/>
<path d="M9.89532 48.5571C9.86919 48.2739 9.66176 48.0671 9.40434 48.0671C9.14889 48.0671 8.94113 48.2739 8.91728 48.5571L7.99902 59.1264L8.91728 69.31C8.94113 69.5916 9.14889 69.7957 9.40434 69.7957C9.66176 69.7957 9.86919 69.5916 9.89532 69.31L10.9341 59.1264L9.89532 48.5571Z" fill="#C8B6FF"/>
<path d="M13.2894 70.206C13.5906 70.206 13.8343 69.9581 13.8637 69.634L14.8453 59.1297L13.8637 48.2654C13.8343 47.9391 13.5906 47.6941 13.2894 47.6941C12.984 47.6941 12.7367 47.9394 12.7158 48.2671L11.8481 59.1297L12.7158 69.634C12.7367 69.9584 12.984 70.206 13.2894 70.206Z" fill="#C8B6FF"/>
<path d="M17.201 70.3765C17.5518 70.3765 17.8334 70.0956 17.8625 69.7196L17.8592 69.7222L18.7837 59.1297L17.8592 49.0497C17.8331 48.68 17.5518 48.3948 17.2006 48.3948C16.8446 48.3948 16.5646 48.68 16.5434 49.0527L15.7261 59.13L16.5434 69.7199C16.565 70.0956 16.8449 70.3765 17.201 70.3765Z" fill="#C8B6FF"/>
<path d="M22.7561 59.1324L21.8888 42.7429C21.8646 42.3273 21.5409 41.9961 21.1436 41.9961C20.7494 41.9961 20.4266 42.327 20.4024 42.7429L19.6348 59.1324L20.4024 69.7223C20.4266 70.1398 20.7497 70.4664 21.1436 70.4664C21.5412 70.4664 21.8646 70.1398 21.8888 69.7223V69.7252L22.7561 59.1324Z" fill="#C8B6FF"/>
<path d="M25.1257 70.4837C25.5631 70.4837 25.926 70.1208 25.9466 69.6576V69.6644L26.7574 59.135L25.9466 38.994C25.926 38.5308 25.5631 38.1678 25.1257 38.1678C24.6782 38.1678 24.3185 38.5308 24.2943 38.994L23.5806 59.135L24.2976 69.6608C24.3185 70.1208 24.6782 70.4837 25.1257 70.4837Z" fill="#C8B6FF"/>
<path d="M29.1302 36.4022C28.6376 36.4022 28.24 36.8066 28.2198 37.3166L27.5557 59.1383L28.2198 69.5537C28.2404 70.061 28.6376 70.4628 29.1302 70.4628C29.6215 70.4628 30.022 70.0643 30.0393 69.5521V69.5573L30.7929 59.1383L30.0393 37.3166C30.022 36.8034 29.6212 36.4022 29.1302 36.4022Z" fill="#C8B6FF"/>
<path d="M33.1692 70.4837C33.7102 70.4837 34.1411 70.0473 34.1613 69.4854V69.4916L34.8581 59.1386L34.1613 36.5839C34.1407 36.024 33.7102 35.5856 33.1692 35.5856C32.625 35.5856 32.1876 36.024 32.1791 36.5839L31.5532 59.1386L32.1791 69.4916C32.1876 70.0473 32.625 70.4837 33.1692 70.4837Z" fill="#C8B6FF"/>
<path d="M37.2421 70.4733C37.8258 70.4733 38.2995 69.9953 38.3171 69.3894V69.3989L38.9584 59.1402L38.3171 37.1591C38.2995 36.5535 37.8258 36.0775 37.2421 36.0775C36.6541 36.0775 36.1804 36.5531 36.1631 37.1591L35.5996 59.1402L36.1667 69.394C36.1804 69.9953 36.6541 70.4733 37.2421 70.4733Z" fill="#C8B6FF"/>
<path d="M43.0836 59.1401L42.5031 37.9604C42.4891 37.307 41.9775 36.7938 41.3431 36.7938C40.7071 36.7938 40.1952 37.307 40.1818 37.9646L39.6611 59.1401L40.1818 69.3315C40.1952 69.9796 40.7068 70.4931 41.3431 70.4931C41.9772 70.4931 42.4891 69.9796 42.5031 69.322V69.3315L43.0836 59.1401Z" fill="#C8B6FF"/>
<path d="M45.4754 70.5121C46.1497 70.5121 46.7079 69.9512 46.7184 69.2617V69.2672L47.2453 59.1458L46.7184 33.9424C46.7083 33.2502 46.15 32.6903 45.4754 32.6903C44.8015 32.6903 44.2449 33.2528 44.2311 33.946L43.7627 59.1356L44.2311 69.2675C44.2449 69.9513 44.8015 70.5121 45.4754 70.5121Z" fill="#C8B6FF"/>
<path d="M49.5946 30.3193C48.8665 30.3193 48.2759 30.9233 48.2638 31.6596L47.7192 59.149L48.2671 69.1208C48.2759 69.8477 48.8668 70.4497 49.5946 70.4497C50.3117 70.4497 50.9134 69.8473 50.9167 69.1088V69.1208L51.5112 59.149L50.9167 31.6596C50.9134 30.9207 50.3117 30.3193 49.5946 30.3193Z" fill="#C8B6FF"/>
<path d="M53.3609 70.5216C53.3903 70.5242 86.5577 70.5399 86.7707 70.5399C93.4298 70.5399 98.826 65.0773 98.826 58.3366C98.826 51.5994 93.4295 46.1359 86.7707 46.1359C85.1181 46.1359 83.5436 46.4737 82.1075 47.0855C81.153 36.0863 72.0413 27.4603 60.9258 27.4603C58.2086 27.4603 55.559 28.0032 53.2188 28.9202C52.308 29.2763 52.0643 29.6434 52.0571 30.3549V69.0777C52.0676 69.8258 52.6379 70.4474 53.3609 70.5216Z" fill="#C8B6FF"/>
</g>
<defs>
<clipPath id="clip0_132_18">
<rect width="98" height="98.0001" fill="white" transform="translate(0.826172)"/>
</clipPath>
</defs>
</svg>
