<svg width="65" height="64" viewBox="0 0 65 64" fill="none" xmlns="http://www.w3.org/2000/svg">
<g clip-path="url(#clip0_132_13)">
<path fill-rule="evenodd" clip-rule="evenodd" d="M51.319 28.448C41.0099 22.4561 24.0028 21.9043 14.1575 24.8283C12.5774 25.2947 10.9077 24.4243 10.4279 22.8747C9.94813 21.3282 10.8406 19.694 12.4207 19.2244C23.7214 15.8653 42.5036 16.5131 54.3737 23.4097C55.7938 24.2362 56.2608 26.0338 55.4164 27.4238C54.5784 28.8138 52.736 29.2744 51.319 28.448ZM50.9831 37.323C50.2602 38.4719 48.7249 38.8314 47.551 38.127C38.9563 32.9553 25.8484 31.4588 15.6801 34.4798C14.359 34.868 12.9676 34.1416 12.5678 32.8518C12.1712 31.562 12.9133 30.1997 14.2311 29.8084C25.8452 26.3585 40.287 28.0306 50.1611 33.9692C51.335 34.6736 51.7028 36.1772 50.9831 37.323ZM47.068 45.8464C46.4923 46.7668 45.2672 47.058 44.3268 46.4945C36.8165 42.0022 27.3614 40.9883 16.227 43.4771C15.1555 43.7181 14.0839 43.06 13.8408 42.0081C13.5946 40.9594 14.2631 39.915 15.341 39.674C27.5245 36.9472 37.9744 38.1204 46.4059 43.1637C47.3463 43.7272 47.6438 44.926 47.068 45.8464ZM32.3992 0.694824C14.7333 0.694824 0.413086 14.7103 0.413086 32.0004C0.413086 49.2905 14.7333 63.306 32.3992 63.306C50.0651 63.306 64.3853 49.2905 64.3853 32.0004C64.3853 14.7135 50.0651 0.694824 32.3992 0.694824Z" fill="#C8B6FF"/>
</g>
<defs>
<clipPath id="clip0_132_13">
<rect width="63.9722" height="62.6112" fill="white" transform="translate(0.413086 0.694824)"/>
</clipPath>
</defs>
</svg>
