<svg width="500" height="500" viewBox="0 0 500 500" fill="none" xmlns="http://www.w3.org/2000/svg">
<path d="M489.542 128.874C486.717 118.234 481.146 108.523 473.388 100.713C465.629 92.9033 455.955 87.269 445.333 84.3744C406.354 73.8535 250 73.8535 250 73.8535C250 73.8535 93.6458 73.8535 54.6458 84.3744C44.0293 87.2741 34.3603 92.9105 26.6058 100.72C18.8513 108.529 13.2832 118.238 10.4583 128.874C0 168.124 0 249.999 0 249.999C0 249.999 0 331.874 10.4583 371.124C13.283 381.764 18.8537 391.476 26.6123 399.286C34.371 407.095 44.0454 412.73 54.6667 415.624C93.6458 426.145 250 426.145 250 426.145C250 426.145 406.354 426.145 445.354 415.624C455.976 412.732 465.652 407.098 473.411 399.288C481.17 391.478 486.74 381.765 489.563 371.124C500 331.874 500 249.999 500 249.999C500 249.999 500 168.124 489.542 128.874ZM198.854 324.333V175.666L329.542 249.999L198.854 324.333Z" fill="black"/>
</svg>
