<svg width="182" height="110" viewBox="0 0 182 110" fill="none" xmlns="http://www.w3.org/2000/svg">
<path d="M61.9718 55C61.9718 58.3752 59.2097 61.1111 55.8023 61.1111C52.3952 61.1111 49.6328 58.3752 49.6328 55C49.6328 51.6248 52.3952 48.8889 55.8023 48.8889C59.2097 48.8889 61.9718 51.6248 61.9718 55Z" fill="white"/>
<path d="M129.837 55C129.837 58.3752 127.074 61.1111 123.667 61.1111C120.26 61.1111 117.498 58.3752 117.498 55C117.498 51.6248 120.26 48.8889 123.667 48.8889C127.074 48.8889 129.837 51.6248 129.837 55Z" fill="white"/>
<path fill-rule="evenodd" clip-rule="evenodd" d="M123.667 6.22264e-06C125.753 6.58381e-06 127.811 0.113876 129.837 0.33568V6.48936C127.816 6.23972 125.757 6.11111 123.667 6.11111C112.753 6.11111 102.671 9.61715 94.4999 15.5569C95.9858 16.9874 97.3909 18.4996 98.7084 20.0861C105.756 15.1345 114.371 12.2222 123.667 12.2222C125.762 12.2222 127.822 12.3699 129.837 12.6554V18.8403C127.83 18.5069 125.769 18.3333 123.667 18.3333C115.731 18.3333 108.383 20.8043 102.358 25.0141C103.484 26.7261 104.517 28.5041 105.448 30.3408C110.553 26.6352 116.854 24.4444 123.667 24.4444C125.78 24.4444 127.843 24.6549 129.837 25.0556V31.3256C127.865 30.8229 125.798 30.5556 123.667 30.5556C117.705 30.5556 112.242 32.6465 107.975 36.1329C108.762 38.2656 109.418 40.4601 109.936 42.7069C113.323 38.9974 118.22 36.6667 123.667 36.6667C125.83 36.6667 127.907 37.0343 129.837 37.7098V44.4128C128.022 43.373 125.915 42.7778 123.667 42.7778C116.853 42.7778 111.328 48.25 111.328 55C111.328 61.75 116.853 67.2222 123.667 67.2222C130.482 67.2222 136.006 61.75 136.006 55L136.006 54.9361V1.36288C160.733 6.92068 179.193 28.825 179.193 55C179.193 85.3756 154.333 110 123.667 110C110.889 110 99.1183 105.724 89.7348 98.538C80.3523 105.723 68.5781 110 55.8026 110C53.7174 110 51.6589 109.886 49.6331 109.664V103.511C51.6543 103.76 53.7133 103.889 55.8026 103.889C66.7174 103.889 76.7987 100.383 84.9701 94.4429C83.4845 93.0126 82.0794 91.5004 80.7619 89.914C73.7142 94.8655 65.0985 97.7778 55.8029 97.7778C53.7081 97.7778 51.6484 97.6302 49.6331 97.3445V91.1598C51.6398 91.4931 53.701 91.6667 55.8029 91.6667C63.7397 91.6667 71.0869 89.1956 77.1124 84.986C75.9861 83.274 74.9537 81.4959 74.0218 79.6592C68.9177 83.3647 62.6165 85.5556 55.8029 85.5556C53.6902 85.5556 51.6268 85.345 49.6331 84.9441V78.6741C51.6052 79.1771 53.6726 79.4444 55.8029 79.4444C61.7648 79.4444 67.2285 77.3535 71.4951 73.8671C70.7088 71.7344 70.052 69.5399 69.5341 67.2931C66.1473 71.0026 61.25 73.3333 55.8029 73.3333C53.6396 73.3333 51.563 72.9658 49.6331 72.2902V65.5869C51.4482 66.627 53.5554 67.2222 55.8029 67.2222C62.6175 67.2222 68.1419 61.75 68.1419 55C68.1419 48.25 62.6175 42.7778 55.8029 42.7778C48.9884 42.7778 43.464 48.25 43.464 55L43.4637 108.637C18.7366 103.079 0.277344 81.1748 0.277344 55C0.277344 24.6243 25.1371 0 55.8029 0C68.5815 0 80.3517 4.27576 89.7352 11.4617C99.118 4.27717 110.892 0 123.667 6.22264e-06ZM142.176 9.66481V16.3388C156.766 23.2043 166.854 37.9353 166.854 55C166.854 78.6256 147.519 97.7778 123.667 97.7778C99.8161 97.7778 80.4809 78.6256 80.4809 55C80.4809 41.4996 69.4323 30.5556 55.8029 30.5556C42.1736 30.5556 31.125 41.4996 31.125 55C31.125 61.1994 33.4549 66.8598 37.2945 71.1688V55C37.2945 44.8748 45.581 36.6667 55.8029 36.6667C66.0249 36.6667 74.3114 44.8748 74.3114 55C74.3114 82.0007 96.4087 103.889 123.667 103.889C150.926 103.889 173.023 82.0007 173.023 55C173.023 34.4826 160.264 16.9173 142.176 9.66481ZM37.2945 79.4466L37.2942 86.7613C26.23 80.4213 18.786 68.5719 18.786 55C18.786 34.7496 35.3591 18.3333 55.8029 18.3333C76.2468 18.3333 92.8199 34.7496 92.8199 55C92.8199 71.8752 106.631 85.5556 123.667 85.5556C140.704 85.5556 154.515 71.8752 154.515 55C154.515 45.0034 149.668 36.128 142.176 30.5534V23.2387C153.24 29.5785 160.684 41.4281 160.684 55C160.684 75.2504 144.111 91.6667 123.667 91.6667C103.224 91.6667 86.6504 75.2504 86.6504 55C86.6504 38.1248 72.8394 24.4444 55.8029 24.4444C38.7662 24.4444 24.9555 38.1248 24.9555 55C24.9555 64.9966 29.802 73.872 37.2945 79.4466ZM12.6165 55C12.6165 72.0647 22.7039 86.7955 37.2942 93.661V100.335C19.2064 93.0826 6.44698 75.5174 6.44701 55C6.44701 27.9994 28.5444 6.11111 55.8029 6.11111C83.0616 6.11111 105.159 27.9994 105.159 55C105.159 65.1252 113.445 73.3333 123.667 73.3333C133.889 73.3333 142.176 65.1252 142.176 55V38.8312C146.015 43.1402 148.345 48.8006 148.345 55C148.345 68.5004 137.297 79.4444 123.667 79.4444C110.038 79.4444 98.9894 68.5004 98.9894 55C98.9894 31.3744 79.6542 12.2222 55.8029 12.2222C31.9517 12.2222 12.6165 31.3744 12.6165 55Z" fill="white"/>
</svg>
